<svg width="18" height="18" viewBox="0 0 18 18" fill="none" xmlns="http://www.w3.org/2000/svg">
<path d="M13.0125 6.78759L11.2575 12.4426C10.8375 13.7851 8.95498 13.8076 8.51248 12.4726L7.98748 10.9201C7.84498 10.4926 7.50748 10.1476 7.07998 10.0126L5.51998 9.48758C4.19248 9.04508 4.21498 7.14759 5.55748 6.74259L11.2125 4.98009C12.3225 4.64259 13.365 5.68509 13.0125 6.78759Z" stroke="#EE6C6C" stroke-width="1.5" stroke-linecap="round" stroke-linejoin="round"/>
<path d="M6.75 16.5H11.25C15 16.5 16.5 15 16.5 11.25V6.75C16.5 3 15 1.5 11.25 1.5H6.75C3 1.5 1.5 3 1.5 6.75V11.25C1.5 15 3 16.5 6.75 16.5Z" stroke="#EE6C6C" stroke-width="1.5" stroke-linecap="round" stroke-linejoin="round"/>
</svg>
