<svg width="188" height="47" viewBox="0 0 188 47" fill="none" xmlns="http://www.w3.org/2000/svg">
<path d="M71.134 26.1227V22H56.3976V1.53282H60.3156V18.6375H68.2101V1.53282H72.1281V18.6375H74.6719V26.1227H71.134ZM75.7925 22V8.63785H79.4181V19.2223L76.9036 19.427L85.6168 8.63785H88.4529V22H84.8273V11.7079L86.7571 11.474L78.2778 22H75.7925ZM96.9258 29.0173V1.53282H100.551V29.0173H96.9258ZM96.7796 22.2047C95.766 22.2047 94.8206 22.0487 93.9434 21.7369C93.0663 21.425 92.3061 20.9766 91.6628 20.3919C91.0391 19.7876 90.542 19.0664 90.1716 18.2282C89.8013 17.3705 89.6161 16.4056 89.6161 15.3335C89.6161 14.2225 89.811 13.2381 90.2009 12.3804C90.6102 11.5228 91.1463 10.8015 91.809 10.2168C92.4912 9.63197 93.2612 9.19339 94.1189 8.901C94.9765 8.60861 95.8635 8.46242 96.7796 8.46242H97.189V11.4448H96.955C96.4287 11.4448 95.9414 11.5325 95.4931 11.7079C95.0643 11.8834 94.6842 12.1465 94.3528 12.4974C94.0409 12.8288 93.7972 13.2284 93.6218 13.6962C93.4464 14.164 93.3587 14.7 93.3587 15.3043C93.3587 15.9086 93.4464 16.4544 93.6218 16.9417C93.7972 17.4095 94.0409 17.8188 94.3528 18.1697C94.6842 18.5011 95.0643 18.7545 95.4931 18.9299C95.9414 19.1054 96.4287 19.1931 96.955 19.1931H97.189V22.2047H96.7796ZM100.318 22.2047V19.1931H100.551C101.078 19.1931 101.555 19.1054 101.984 18.9299C102.432 18.7545 102.813 18.5011 103.124 18.1697C103.456 17.8383 103.709 17.429 103.885 16.9417C104.06 16.4544 104.148 15.9183 104.148 15.3335C104.148 14.7098 104.06 14.164 103.885 13.6962C103.709 13.2284 103.456 12.8288 103.124 12.4974C102.813 12.1465 102.432 11.8834 101.984 11.7079C101.555 11.5325 101.078 11.4448 100.551 11.4448H100.318V8.46242H100.756C101.77 8.46242 102.705 8.61836 103.563 8.93024C104.44 9.22263 105.2 9.67096 105.844 10.2752C106.487 10.86 106.984 11.5715 107.335 12.4097C107.686 13.2478 107.861 14.203 107.861 15.2751C107.861 16.4056 107.656 17.4095 107.247 18.2867C106.857 19.1443 106.331 19.8656 105.668 20.4503C105.005 21.0156 104.245 21.4542 103.388 21.7661C102.53 22.0585 101.653 22.2047 100.756 22.2047H100.318ZM112.672 29.0173H109.046V12.4681V12.2635V8.63785H112.467V12.2635L112.672 12.4681V18.3159V18.7545V29.0173ZM116.94 22.2047C116.278 22.2047 115.644 22.1072 115.04 21.9123C114.455 21.7174 113.929 21.4542 113.461 21.1228C112.993 20.772 112.603 20.3724 112.291 19.924C111.98 19.4757 111.765 18.9884 111.648 18.4621V15.3628H112.672C112.672 15.9086 112.75 16.4154 112.906 16.8832C113.081 17.351 113.315 17.7506 113.607 18.082C113.9 18.3939 114.241 18.6473 114.631 18.8422C115.04 19.0176 115.488 19.1054 115.976 19.1054C116.443 19.1054 116.882 19.0176 117.291 18.8422C117.701 18.6668 118.061 18.4134 118.373 18.082C118.685 17.7506 118.919 17.351 119.075 16.8832C119.25 16.4154 119.338 15.8891 119.338 15.3043C119.338 14.6805 119.25 14.1445 119.075 13.6962C118.899 13.2284 118.656 12.8385 118.344 12.5266C118.032 12.2147 117.671 11.9808 117.262 11.8249C116.853 11.6689 116.424 11.591 115.976 11.591C115.488 11.591 115.04 11.6787 114.631 11.8541C114.221 12.0296 113.87 12.283 113.578 12.6143C113.286 12.9262 113.061 13.2966 112.906 13.7254C112.75 14.1542 112.672 14.6221 112.672 15.1289H111.794V12.0003C111.833 11.5325 111.989 11.0842 112.262 10.6553C112.555 10.2265 112.925 9.84639 113.373 9.51502C113.841 9.18365 114.377 8.9205 114.981 8.72557C115.586 8.51115 116.239 8.40394 116.94 8.40394C117.759 8.40394 118.539 8.57938 119.28 8.93024C120.04 9.26162 120.703 9.72944 121.268 10.3337C121.853 10.938 122.311 11.6592 122.642 12.4974C122.993 13.3356 123.168 14.2712 123.168 15.3043C123.168 16.3374 122.993 17.2828 122.642 18.1405C122.311 18.9787 121.853 19.6999 121.268 20.3041C120.683 20.9084 120.011 21.3762 119.25 21.7076C118.51 22.039 117.74 22.2047 116.94 22.2047ZM130.806 22.2047C129.753 22.2047 128.779 22.039 127.882 21.7076C127.005 21.3762 126.245 20.9084 125.602 20.3041C124.958 19.6804 124.451 18.9494 124.081 18.1112C123.73 17.2731 123.555 16.3374 123.555 15.3043C123.555 14.2712 123.74 13.3258 124.11 12.4681C124.481 11.6105 124.988 10.8892 125.631 10.3045C126.274 9.7002 127.034 9.23238 127.911 8.901C128.808 8.56963 129.773 8.40394 130.806 8.40394C131.859 8.40394 132.824 8.56963 133.701 8.901C134.597 9.23238 135.358 9.70994 135.981 10.3337C136.625 10.938 137.122 11.6592 137.473 12.4974C137.843 13.3356 138.028 14.2712 138.028 15.3043C138.028 16.3569 137.843 17.312 137.473 18.1697C137.102 19.0079 136.595 19.7291 135.952 20.3334C135.309 20.9377 134.549 21.4055 133.671 21.7369C132.794 22.0487 131.839 22.2047 130.806 22.2047ZM130.806 19.1346C131.332 19.1346 131.8 19.0469 132.21 18.8714C132.638 18.6765 132.999 18.4134 133.291 18.082C133.603 17.7311 133.837 17.3218 133.993 16.854C134.149 16.3861 134.227 15.8696 134.227 15.3043C134.227 14.7585 134.149 14.2615 133.993 13.8131C133.837 13.3453 133.613 12.936 133.321 12.5851C133.028 12.2342 132.668 11.9711 132.239 11.7956C131.829 11.6007 131.352 11.5033 130.806 11.5033C130.26 11.5033 129.773 11.6007 129.344 11.7956C128.935 11.9906 128.574 12.2635 128.262 12.6143C127.97 12.9457 127.746 13.3453 127.59 13.8131C127.434 14.2809 127.356 14.778 127.356 15.3043C127.356 15.8306 127.434 16.3277 127.59 16.7955C127.746 17.2633 127.97 17.6727 128.262 18.0235C128.555 18.3744 128.915 18.6473 129.344 18.8422C129.773 19.0371 130.26 19.1346 130.806 19.1346ZM139.187 22V8.63785H146.409C147.793 8.63785 148.836 8.93999 149.538 9.54426C150.239 10.129 150.59 10.899 150.59 11.8541C150.59 12.3219 150.503 12.741 150.327 13.1114C150.171 13.4623 149.957 13.7644 149.684 14.0178C149.411 14.2712 149.08 14.4661 148.69 14.6026C148.319 14.739 147.93 14.8072 147.52 14.8072V14.5441C148.144 14.5441 148.719 14.6123 149.245 14.7488C149.791 14.8657 150.259 15.0607 150.649 15.3335C151.058 15.6064 151.37 15.9671 151.584 16.4154C151.818 16.8442 151.935 17.3705 151.935 17.9943C151.935 19.2808 151.458 20.2749 150.503 20.9766C149.567 21.6589 148.193 22 146.38 22H139.187ZM142.813 20.5965L141.731 19.3393H145.59C146.487 19.3393 147.13 19.1931 147.52 18.9007C147.93 18.6083 148.134 18.1892 148.134 17.6434C148.134 17.0586 147.93 16.6395 147.52 16.3861C147.111 16.1132 146.497 15.9768 145.678 15.9768H141.731V13.8716H145.327C145.951 13.8716 146.419 13.7644 146.731 13.55C147.043 13.3356 147.199 13.0042 147.199 12.5559C147.199 12.127 147.043 11.8151 146.731 11.6202C146.419 11.4058 145.941 11.2986 145.298 11.2986H141.731L142.813 10.0121V20.5965ZM159.177 22.2047C158.124 22.2047 157.15 22.039 156.253 21.7076C155.376 21.3762 154.616 20.9084 153.972 20.3041C153.329 19.6804 152.822 18.9494 152.452 18.1112C152.101 17.2731 151.926 16.3374 151.926 15.3043C151.926 14.2712 152.111 13.3258 152.481 12.4681C152.852 11.6105 153.358 10.8892 154.002 10.3045C154.645 9.7002 155.405 9.23238 156.282 8.901C157.179 8.56963 158.144 8.40394 159.177 8.40394C160.229 8.40394 161.194 8.56963 162.072 8.901C162.968 9.23238 163.728 9.70994 164.352 10.3337C164.995 10.938 165.492 11.6592 165.843 12.4974C166.214 13.3356 166.399 14.2712 166.399 15.3043C166.399 16.3569 166.214 17.312 165.843 18.1697C165.473 19.0079 164.966 19.7291 164.323 20.3334C163.68 20.9377 162.919 21.4055 162.042 21.7369C161.165 22.0487 160.21 22.2047 159.177 22.2047ZM159.177 19.1346C159.703 19.1346 160.171 19.0469 160.58 18.8714C161.009 18.6765 161.37 18.4134 161.662 18.082C161.974 17.7311 162.208 17.3218 162.364 16.854C162.52 16.3861 162.598 15.8696 162.598 15.3043C162.598 14.7585 162.52 14.2615 162.364 13.8131C162.208 13.3453 161.984 12.936 161.691 12.5851C161.399 12.2342 161.038 11.9711 160.61 11.7956C160.2 11.6007 159.723 11.5033 159.177 11.5033C158.631 11.5033 158.144 11.6007 157.715 11.7956C157.306 11.9906 156.945 12.2635 156.633 12.6143C156.341 12.9457 156.117 13.3453 155.961 13.8131C155.805 14.2809 155.727 14.778 155.727 15.3043C155.727 15.8306 155.805 16.3277 155.961 16.7955C156.117 17.2633 156.341 17.6727 156.633 18.0235C156.925 18.3744 157.286 18.6473 157.715 18.8422C158.144 19.0371 158.631 19.1346 159.177 19.1346ZM167.558 22V8.63785H171.184V19.2223L168.669 19.427L177.382 8.63785H180.218V22H176.593V11.7079L178.522 11.474L170.043 22H167.558ZM173.903 6.91276C173.298 6.91276 172.723 6.83479 172.178 6.67885C171.651 6.50342 171.184 6.25002 170.774 5.91864C170.384 5.56778 170.072 5.13894 169.839 4.63213C169.605 4.10583 169.478 3.50157 169.458 2.81933H172.061C172.1 3.34563 172.265 3.77446 172.558 4.10583C172.85 4.43721 173.318 4.60289 173.961 4.60289C174.565 4.60289 175.024 4.44695 175.335 4.13507C175.647 3.8037 175.823 3.36512 175.862 2.81933H178.435C178.396 3.50157 178.25 4.10583 177.996 4.63213C177.762 5.13894 177.431 5.56778 177.002 5.91864C176.593 6.25002 176.125 6.50342 175.599 6.67885C175.072 6.83479 174.507 6.91276 173.903 6.91276Z" fill="#EE6C6C"/>
<path d="M62.567 24.5328C63.6975 24.5328 64.7112 24.679 65.6078 24.9714C66.5045 25.2638 67.2647 25.6829 67.8884 26.2287C68.5317 26.7745 69.019 27.447 69.3504 28.2461C69.7013 29.0259 69.8767 29.9128 69.8767 30.9069C69.8767 31.9205 69.7013 32.8366 69.3504 33.6553C69.019 34.4545 68.522 35.1465 67.8592 35.7313C67.216 36.2966 66.4265 36.7449 65.4909 37.0763C64.5747 37.3882 63.5416 37.5441 62.3915 37.5441H60.3156V45H56.3976V24.5328H62.567ZM62.1576 34.1524C62.8009 34.1524 63.3564 34.0744 63.8242 33.9185C64.2921 33.7625 64.6722 33.5384 64.9646 33.246C65.2764 32.9536 65.5104 32.6222 65.6663 32.2519C65.8222 31.8815 65.9002 31.4722 65.9002 31.0238C65.9002 30.595 65.8222 30.1954 65.6663 29.825C65.5298 29.4352 65.3057 29.1038 64.9938 28.8309C64.7014 28.5385 64.3116 28.3144 63.8242 28.1584C63.3564 27.983 62.7911 27.8953 62.1284 27.8953H60.3156V34.1524H62.1576ZM76.4008 45.2047C75.3287 45.2047 74.3444 45.0487 73.4477 44.7369C72.551 44.4055 71.7811 43.9377 71.1378 43.3334C70.5141 42.7291 70.017 42.0176 69.6467 41.199C69.2958 40.3608 69.1204 39.4349 69.1204 38.4213C69.1204 37.3492 69.3055 36.3843 69.6759 35.5266C70.0463 34.6495 70.5531 33.9087 71.1963 33.3045C71.8396 32.7002 72.59 32.2324 73.4477 31.901C74.3249 31.5696 75.2508 31.4039 76.2254 31.4039C77.278 31.4039 78.2136 31.5891 79.0323 31.9595C79.8705 32.3103 80.5722 32.8074 81.1375 33.4507C81.7028 34.0744 82.1316 34.8151 82.424 35.6728C82.7359 36.511 82.8918 37.4174 82.8918 38.392V39.1522H71.2256V36.9593H81.6346L79.4417 38.509V37.4856C79.4417 37.0568 79.3637 36.6474 79.2078 36.2576C79.0518 35.8677 78.8277 35.5364 78.5353 35.2635C78.2429 34.9711 77.892 34.7469 77.4827 34.591C77.0733 34.4155 76.6055 34.3278 76.0792 34.3278C75.5724 34.3278 75.0948 34.4253 74.6465 34.6202C74.2177 34.7956 73.857 35.0491 73.5647 35.3804C73.2723 35.7118 73.0384 36.1211 72.8629 36.6085C72.6875 37.0763 72.5998 37.6123 72.5998 38.2166C72.5998 38.8793 72.6972 39.4641 72.8922 39.9709C73.0871 40.4777 73.36 40.9066 73.7109 41.2574C74.0812 41.6083 74.5198 41.8812 75.0266 42.0761C75.5334 42.2515 76.0889 42.3393 76.6932 42.3393C77.4729 42.3393 78.1941 42.2028 78.8569 41.9299C79.5391 41.657 80.1044 41.2574 80.5527 40.7311L82.5702 42.5732C81.8685 43.4308 80.9816 44.0838 79.9095 44.5322C78.8569 44.9805 77.6873 45.2047 76.4008 45.2047ZM82.2927 45V44.3275L87.3218 36.7546L87.351 39.1522L82.6435 32.3103V31.6379H86.4446L89.9533 36.8131H88.2866L91.5906 31.6379H95.0408V32.3103L90.538 39.0938L90.2456 36.6377L95.4502 44.3567L95.4794 45H91.7661L87.8773 39.1815H89.6901L85.8306 45H82.2927ZM105.395 45V41.7545L105.19 41.3159V35.4681L105.395 35.2635V31.6379H108.816V35.2635V35.4681V45H105.395ZM100.921 45.2047C100.122 45.2047 99.3426 45.039 98.5824 44.7076C97.8416 44.3762 97.1789 43.9084 96.5941 43.3041C96.0093 42.6999 95.5415 41.9787 95.1907 41.1405C94.8398 40.2828 94.6644 39.3374 94.6644 38.3043C94.6644 37.2712 94.8398 36.3356 95.1907 35.4974C95.5415 34.6592 95.9996 33.938 96.5649 33.3337C97.1302 32.7294 97.7929 32.2616 98.5531 31.9302C99.3133 31.5794 100.103 31.4039 100.921 31.4039C101.623 31.4039 102.276 31.5112 102.88 31.7256C103.485 31.9205 104.011 32.1836 104.459 32.515C104.908 32.8464 105.278 33.2265 105.57 33.6553C105.863 34.0842 106.029 34.5325 106.068 35.0003V38.1289H105.19C105.19 37.6221 105.112 37.1542 104.956 36.7254C104.8 36.2966 104.576 35.9262 104.284 35.6143C103.992 35.283 103.641 35.0296 103.231 34.8541C102.822 34.6787 102.374 34.591 101.886 34.591C101.438 34.591 101.009 34.6689 100.6 34.8249C100.191 34.9808 99.8299 35.2147 99.518 35.5266C99.2061 35.8385 98.9625 36.2284 98.787 36.6962C98.6116 37.1445 98.5239 37.6805 98.5239 38.3043C98.5239 38.8891 98.6019 39.4154 98.7578 39.8832C98.9332 40.351 99.1671 40.7506 99.4595 41.082C99.7714 41.4134 100.132 41.6668 100.541 41.8422C100.951 42.0176 101.399 42.1054 101.886 42.1054C102.374 42.1054 102.812 42.0176 103.202 41.8422C103.611 41.6473 103.962 41.3939 104.255 41.082C104.547 40.7506 104.771 40.351 104.927 39.8832C105.103 39.4154 105.19 38.9086 105.19 38.3628H106.214V41.4621C106.097 41.9884 105.882 42.4757 105.57 42.924C105.259 43.3724 104.869 43.772 104.401 44.1228C103.933 44.4542 103.407 44.7174 102.822 44.9123C102.237 45.1072 101.604 45.2047 100.921 45.2047ZM117.477 45.2631C116.191 45.2631 115.07 45.0585 114.115 44.6491C113.179 44.2398 112.399 43.6355 111.775 42.8363C111.171 42.0176 110.723 41.004 110.43 39.7955C110.138 38.5869 109.992 37.1737 109.992 35.5559C109.992 33.6846 110.187 32.0862 110.577 30.7607C110.986 29.4157 111.551 28.3241 112.273 27.4859C113.013 26.6283 113.9 26.0045 114.933 25.6147C115.986 25.2053 117.155 25.0006 118.442 25.0006C118.812 25.0006 119.134 24.9909 119.407 24.9714C119.68 24.9324 119.923 24.8739 120.138 24.796C120.352 24.6985 120.528 24.5815 120.664 24.4451C120.801 24.3087 120.917 24.1332 121.015 23.9188L123.88 24.7667C123.724 25.332 123.529 25.8193 123.296 26.2287C123.081 26.638 122.779 26.9791 122.389 27.252C121.999 27.5054 121.502 27.7101 120.898 27.866C120.294 28.0025 119.524 28.1 118.588 28.1584C117.594 28.2169 116.746 28.3534 116.044 28.5678C115.343 28.7822 114.768 29.172 114.319 29.7373C113.89 30.3026 113.579 31.0921 113.384 32.1057C113.189 33.1193 113.091 34.4448 113.091 36.0822L112.536 35.7898C112.77 34.9711 113.072 34.2888 113.442 33.743C113.832 33.1973 114.271 32.7587 114.758 32.4273C115.265 32.0764 115.81 31.8328 116.395 31.6963C116.98 31.5404 117.584 31.4624 118.208 31.4624C119.202 31.4624 120.089 31.6184 120.869 31.9302C121.648 32.2421 122.311 32.6905 122.857 33.2752C123.403 33.8405 123.822 34.5325 124.114 35.3512C124.407 36.1504 124.553 37.047 124.553 38.0412C124.553 39.1522 124.377 40.1561 124.027 41.0528C123.676 41.9299 123.188 42.6804 122.565 43.3041C121.941 43.9084 121.19 44.386 120.313 44.7369C119.456 45.0877 118.51 45.2631 117.477 45.2631ZM117.419 42.0761C117.906 42.0761 118.344 41.9884 118.734 41.813C119.144 41.6375 119.495 41.3939 119.787 41.082C120.079 40.7506 120.303 40.351 120.459 39.8832C120.635 39.3959 120.723 38.8598 120.723 38.2751C120.723 37.6903 120.645 37.1737 120.489 36.7254C120.333 36.2576 120.109 35.8677 119.816 35.5559C119.543 35.2245 119.202 34.9711 118.793 34.7956C118.403 34.6202 117.945 34.5325 117.419 34.5325C116.892 34.5325 116.424 34.6202 116.015 34.7956C115.606 34.9516 115.255 35.1952 114.963 35.5266C114.67 35.8385 114.446 36.2284 114.29 36.6962C114.134 37.1445 114.056 37.6611 114.056 38.2458C114.056 38.8501 114.134 39.3861 114.29 39.854C114.465 40.3218 114.699 40.7214 114.992 41.0528C115.284 41.3841 115.635 41.6375 116.044 41.813C116.454 41.9884 116.912 42.0761 117.419 42.0761Z" fill="black"/>
<path d="M27.2625 5.5249C24.9563 5.5249 23.0813 7.39987 23.0813 9.70612V18.4061C23.0813 20.7124 24.9563 22.5874 27.2625 22.5874C29.5688 22.5874 31.4438 20.7124 31.4438 18.4061V9.70612C31.4438 7.41862 29.5688 5.5249 27.2625 5.5249Z" fill="#171717"/>
<path d="M37.8374 15.3311C35.8312 15.3311 34.2 16.9623 34.2 18.9686V21.9123C34.2 22.3061 34.5187 22.6248 34.9124 22.6248H37.8562C39.8624 22.6248 41.4937 20.9936 41.4937 18.9873C41.4937 16.9811 39.8437 15.3311 37.8374 15.3311Z" fill="#171717"/>
<path d="M15.9375 15.1062H7.23752C4.93127 15.1062 3.05627 16.9812 3.05627 19.2875C3.05627 21.5937 4.93127 23.4687 7.23752 23.4687H15.9375C18.2438 23.4687 20.1188 21.5937 20.1188 19.2875C20.1188 16.9812 18.2438 15.1062 15.9375 15.1062Z" fill="#171717"/>
<path d="M16.4812 5.0376C14.475 5.0376 12.8438 6.66885 12.8438 8.6751C12.8438 10.6814 14.475 12.3126 16.4812 12.3126H19.425C19.8187 12.3126 20.1375 11.9938 20.1375 11.6001V8.65633C20.1187 6.68758 18.4875 5.0376 16.4812 5.0376Z" fill="#171717"/>
<path d="M17.6811 26.4314C15.3749 26.4314 13.4999 28.3064 13.4999 30.6127V39.3126C13.4999 41.6189 15.3749 43.4939 17.6811 43.4939C19.9874 43.4939 21.8624 41.6189 21.8624 39.3126V30.6127C21.8624 28.3064 19.9874 26.4314 17.6811 26.4314Z" fill="#171717"/>
<path d="M10.05 26.4314H7.10623C5.09998 26.4314 3.46875 28.0627 3.46875 30.0689C3.46875 32.0752 5.09998 33.7064 7.10623 33.7064C9.11248 33.7064 10.7437 32.0752 10.7437 30.0689V27.1251C10.7437 26.7501 10.425 26.4314 10.05 26.4314Z" fill="#EE6C6C"/>
<path d="M37.7062 25.5688H29.0062C26.6999 25.5688 24.825 27.4438 24.825 29.7501C24.825 32.0563 26.6999 33.9313 29.0062 33.9313H37.7062C40.0124 33.9313 41.8874 32.0563 41.8874 29.7501C41.8874 27.4438 40.0124 25.5688 37.7062 25.5688Z" fill="#EE6C6C"/>
<path d="M28.4624 36.6311H25.5187C25.1249 36.6311 24.8062 36.9499 24.8062 37.3436V40.2874C24.8062 42.2936 26.4374 43.9248 28.4437 43.9248C30.4499 43.9248 32.0812 42.2936 32.0812 40.2874C32.0999 38.2624 30.4686 36.6311 28.4624 36.6311Z" fill="#171717"/>
</svg>
