<svg width="32" height="32" viewBox="0 0 32 32" fill="none" xmlns="http://www.w3.org/2000/svg">
<path d="M19.9998 30.3334H11.9998C4.75984 30.3334 1.6665 27.2401 1.6665 20.0001V12.0001C1.6665 4.76008 4.75984 1.66675 11.9998 1.66675H19.9998C27.2398 1.66675 30.3332 4.76008 30.3332 12.0001V20.0001C30.3332 27.2401 27.2398 30.3334 19.9998 30.3334ZM11.9998 3.66675C5.85317 3.66675 3.6665 5.85341 3.6665 12.0001V20.0001C3.6665 26.1467 5.85317 28.3334 11.9998 28.3334H19.9998C26.1465 28.3334 28.3332 26.1467 28.3332 20.0001V12.0001C28.3332 5.85341 26.1465 3.66675 19.9998 3.66675H11.9998Z" fill="#EE6C6C"/>
<path d="M14.3199 21.7066C14.0666 21.7066 13.8132 21.6133 13.6132 21.4133C13.2266 21.0266 13.2266 20.3866 13.6132 20L17.6132 16L13.6132 12C13.2266 11.6133 13.2266 10.9733 13.6132 10.5866C13.9999 10.2 14.6399 10.2 15.0266 10.5866L19.7332 15.2933C20.1199 15.68 20.1199 16.32 19.7332 16.7066L15.0266 21.4133C14.8266 21.6133 14.5732 21.7066 14.3199 21.7066Z" fill="#EE6C6C"/>
</svg>
